<svg width="840" height="194" viewBox="0 0 840 194" fill="none" xmlns="http://www.w3.org/2000/svg">
<path d="M80.66 56.52C78.79 54.88 76.16 54.07 72.78 54.07C68.34 54.07 64.22 55.18 60.43 57.39C56.64 59.61 53.46 62.71 50.89 66.67C48.32 70.64 46.45 75.14 45.29 80.16C55.79 79.81 63.79 78.82 69.28 77.18C74.76 75.55 78.5 73.53 80.48 71.14C82.47 68.75 83.46 66.27 83.46 63.7C83.46 60.55 82.52 58.15 80.66 56.52ZM80.66 56.52C78.79 54.88 76.16 54.07 72.78 54.07C68.34 54.07 64.22 55.18 60.43 57.39C56.64 59.61 53.46 62.71 50.89 66.67C48.32 70.64 46.45 75.14 45.29 80.16C55.79 79.81 63.79 78.82 69.28 77.18C74.76 75.55 78.5 73.53 80.48 71.14C82.47 68.75 83.46 66.27 83.46 63.7C83.46 60.55 82.52 58.15 80.66 56.52ZM96.75 0C48.85 0 9.09 34.81 1.36 80.5H23.48C24.05 78.02 24.79 75.57 25.67 73.15C28.24 66.15 31.89 59.82 36.62 54.15C41.35 48.49 47.06 44 53.78 40.67C60.49 37.34 67.99 35.68 76.28 35.68C84.57 35.68 91.19 37.93 96.5 42.42C101.81 46.92 104.47 53.13 104.47 61.07C104.47 69.71 101.9 76.6 96.77 81.73C91.63 86.87 84.54 90.55 75.49 92.76C71.1 93.83 66.4 94.66 61.39 95.24C56.38 95.83 51.07 96.16 45.45 96.25H45.21C44.94 96.25 44.68 96.27 44.41 96.27V97.14C44.88 100.76 45.78 103.74 47.12 106.07C48.47 108.41 50.57 110.16 53.43 111.33C56.29 112.49 59.93 113.08 64.37 113.08C68.23 113.08 72.1 112.7 76.02 111.94C79.93 111.18 83.57 110.04 86.96 108.52L88.71 126.74C85.33 128.25 81.12 129.54 76.1 130.59C71.08 131.64 65.71 132.16 60 132.16C50.65 132.16 43.21 130.5 37.67 127.17C32.12 123.85 28.1 119.35 25.59 113.69C23.26 108.43 22.01 102.65 21.84 96.33L0 96.4V96.75C0 150.19 43.31 193.5 96.75 193.5C121.29 193.5 143.7 184.36 160.76 169.29C154.82 170.6 148 171.98 145.62 172.52C141.53 173.45 136.92 173.92 131.79 173.92C124.2 173.92 118.27 172.75 114.01 170.42C109.75 168.08 106.8 164.93 105.17 160.96C103.53 157 102.81 152.38 102.98 147.13C103.16 141.88 103.94 136.39 105.35 130.67L123.03 56.25L146.84 52.57L140.02 80.06H169.78L165.23 98.8H135.64L127.23 133.82C126.3 137.56 125.86 141.03 125.92 144.24C125.98 147.45 126.97 149.99 128.9 151.86C130.82 153.73 134 154.66 138.44 154.66C141.47 154.66 144.31 154.37 146.93 153.78C149.56 153.2 176.9 147.52 179.76 146.46H179.77C188.49 131.93 193.5 114.93 193.5 96.75C193.5 43.32 150.18 0 96.75 0ZM80.48 71.14C82.47 68.75 83.46 66.27 83.46 63.7C83.46 60.55 82.52 58.15 80.66 56.52C78.79 54.88 76.16 54.07 72.78 54.07C68.34 54.07 64.22 55.18 60.43 57.39C56.64 59.61 53.46 62.71 50.89 66.67C48.32 70.64 46.45 75.14 45.29 80.16C55.79 79.81 63.79 78.82 69.28 77.18C74.76 75.55 78.5 73.53 80.48 71.14Z" fill="#191919"/>
<path d="M226.5 138.19V41.17H289.92V57.27H245.68V79.53H285.02V95.35H245.68V122.09H293.28V138.19H226.5Z" fill="#191919"/>
<path d="M308.68 164.09V67.35C311.01 66.6 313.77 65.93 316.94 65.32C320.11 64.71 323.52 64.2 327.16 63.78C330.8 63.36 334.39 63.15 337.94 63.15C345.78 63.15 352.52 64.71 358.17 67.84C363.82 70.97 368.13 75.4 371.12 81.14C374.11 86.88 375.6 93.67 375.6 101.51C375.6 109.35 374.36 115.7 371.89 121.39C369.42 127.08 365.78 131.54 360.97 134.76C356.16 137.98 350.26 139.59 343.26 139.59C339.99 139.59 336.98 139.24 334.23 138.54C331.48 137.84 329.03 136.93 326.88 135.81V164.09H308.68ZM340.04 124.05C343.03 124.05 345.57 123.56 347.67 122.58C349.77 121.6 351.52 120.15 352.92 118.24C354.32 116.33 355.35 114.02 356 111.31C356.65 108.6 356.98 105.48 356.98 101.93C356.98 97.26 356.23 93.2 354.74 89.75C353.25 86.3 351.08 83.61 348.23 81.7C345.38 79.79 341.91 78.83 337.8 78.83C335.37 78.83 333.23 78.95 331.36 79.18C329.49 79.41 328 79.62 326.88 79.81V120.41C328.28 121.34 330.17 122.18 332.55 122.93C334.93 123.68 337.43 124.05 340.04 124.05Z" fill="#191919"/>
<path d="M401.64 51.67C398.65 51.67 396.04 50.67 393.8 48.66C391.56 46.65 390.44 43.92 390.44 40.47C390.44 37.02 391.56 34.31 393.8 32.35C396.04 30.39 398.65 29.41 401.64 29.41C404.63 29.41 407.36 30.39 409.55 32.35C411.74 34.31 412.84 37.02 412.84 40.47C412.84 43.92 411.74 46.65 409.55 48.66C407.36 50.67 404.72 51.67 401.64 51.67ZM392.54 138.19V64.83H410.74V138.19H392.54Z" fill="#191919"/>
<path d="M465.2 140.01C456.52 140.01 449.43 138.33 443.92 134.97C438.41 131.61 434.33 127.04 431.67 121.25C429.01 115.46 427.68 108.88 427.68 101.51C427.68 94.1401 429.17 87.8101 432.16 81.9801C435.15 76.1501 439.39 71.5001 444.9 68.0501C450.41 64.6001 456.99 62.8701 464.64 62.8701C468.56 62.8701 472.18 63.2201 475.49 63.9201C478.8 64.6201 481.86 65.5801 484.66 66.7901L480.74 81.4901C478.78 80.7401 476.63 80.0901 474.3 79.5301C471.97 78.9701 469.26 78.6901 466.18 78.6901C459.55 78.6901 454.61 80.7701 451.34 84.9201C448.07 89.0701 446.44 94.6001 446.44 101.51C446.44 106.18 447.09 110.21 448.4 113.62C449.71 117.03 451.9 119.64 454.98 121.46C458.06 123.28 462.12 124.19 467.16 124.19C469.96 124.19 472.78 123.91 475.63 123.35C478.48 122.79 480.97 122.04 483.12 121.11L485.92 136.23C483.68 137.26 480.74 138.14 477.1 138.89C473.46 139.64 469.49 140.01 465.2 140.01Z" fill="#191919"/>
<path d="M522.32 138.19V57.41H492.64V41.17H571.04V57.41H541.36V138.19H522.32Z" fill="#191919"/>
<path d="M575.79 138.19V68.61C579.15 67.4 583.28 66.21 588.18 65.04C593.08 63.87 598.61 63.29 604.77 63.29C606.36 63.29 608.22 63.41 610.37 63.64C612.52 63.87 614.59 64.18 616.6 64.55C618.61 64.92 620.26 65.39 621.57 65.95L618.49 81.07C616.81 80.6 614.73 80.14 612.26 79.67C609.79 79.2 607.01 78.97 603.93 78.97C602.06 78.97 600.17 79.11 598.26 79.39C596.35 79.67 594.92 80 593.99 80.37V138.19H575.79Z" fill="#191919"/>
<path d="M657.69 139.73C651.62 139.73 646.3 138.96 641.73 137.42C637.16 135.88 633.59 133.36 631.02 129.86C628.45 126.36 627.17 121.67 627.17 115.79C627.17 109.91 628.59 105.71 631.44 102.35C634.29 98.9901 638.09 96.5901 642.85 95.1401C647.61 93.6901 652.7 92.9701 658.11 92.9701C660.82 92.9701 663.31 93.1101 665.6 93.3901C667.89 93.6701 669.59 94.0001 670.71 94.3701V91.8501C670.71 89.2401 670.27 86.9001 669.38 84.8501C668.49 82.8001 666.95 81.1901 664.76 80.0201C662.57 78.8501 659.56 78.2701 655.73 78.2701C651.72 78.2701 648.08 78.5501 644.81 79.1101C641.54 79.6701 638.84 80.3701 636.69 81.2101L634.31 66.3701C636.55 65.6201 639.79 64.8501 644.04 64.0601C648.29 63.2701 652.84 62.8701 657.69 62.8701C665.44 62.8701 671.55 64.0801 676.03 66.5101C680.51 68.9401 683.68 72.3401 685.55 76.7301C687.42 81.1201 688.35 86.3001 688.35 92.2701V136.23C685.64 136.79 681.65 137.51 676.38 138.4C671.11 139.29 664.88 139.73 657.69 139.73ZM659.09 125.45C661.52 125.45 663.76 125.38 665.81 125.24C667.86 125.1 669.5 124.89 670.71 124.61V106.69C669.87 106.41 668.54 106.15 666.72 105.92C664.9 105.69 663.01 105.57 661.05 105.57C658.34 105.57 655.8 105.83 653.42 106.34C651.04 106.85 649.1 107.81 647.61 109.21C646.12 110.61 645.37 112.66 645.37 115.37C645.37 119.1 646.61 121.72 649.08 123.21C651.55 124.7 654.89 125.45 659.09 125.45Z" fill="#191919"/>
<path d="M717.34 51.67C714.35 51.67 711.74 50.67 709.5 48.66C707.26 46.65 706.14 43.92 706.14 40.47C706.14 37.02 707.26 34.31 709.5 32.35C711.74 30.39 714.35 29.41 717.34 29.41C720.33 29.41 723.06 30.39 725.25 32.35C727.44 34.31 728.54 37.02 728.54 40.47C728.54 43.92 727.44 46.65 725.25 48.66C723.06 50.67 720.42 51.67 717.34 51.67ZM708.24 138.19V64.83H726.44V138.19H708.24Z" fill="#191919"/>
<path d="M774.04 139.59C766.95 139.4 761.44 138.38 757.52 136.51C753.6 134.64 750.87 131.94 749.33 128.39C747.79 124.84 747.02 120.55 747.02 115.51V32.4901L765.36 29.55V112.15C765.36 116.07 766.06 118.99 767.46 120.9C768.86 122.81 771.94 124 776.7 124.47L774.04 139.59Z" fill="#191919"/>
<path d="M809.17 140.01C802.73 140.01 797.43 139.47 793.28 138.4C789.13 137.33 786.26 136.42 784.67 135.67L788.03 120.69C790.92 121.81 794.17 122.81 797.76 123.7C801.35 124.59 805.2 125.03 809.31 125.03C813.42 125.03 816.47 124.56 818.48 123.63C820.49 122.7 821.49 120.92 821.49 118.31C821.49 116.82 821 115.56 820.02 114.53C819.04 113.5 817.55 112.48 815.54 111.45C813.53 110.42 810.94 109.3 807.77 108.09C803.66 106.5 800 104.8 796.78 102.98C793.56 101.16 791.04 98.8001 789.22 95.9101C787.4 93.0201 786.49 89.2801 786.49 84.7101C786.49 80.1401 787.63 76.3801 789.92 73.1601C792.21 69.9401 795.43 67.4201 799.58 65.6001C803.73 63.7801 808.7 62.8701 814.49 62.8701C819.06 62.8701 823.31 63.2901 827.23 64.1301C831.15 64.9701 834.18 65.8101 836.33 66.6501L832.97 81.0701C830.92 80.3201 828.47 79.5801 825.62 78.8301C822.77 78.0801 819.44 77.7101 815.61 77.7101C812.16 77.7101 809.45 78.2501 807.49 79.3201C805.53 80.3901 804.55 82.1001 804.55 84.4301C804.55 85.8301 804.92 87.0401 805.67 88.0701C806.42 89.1001 807.68 90.0801 809.45 91.0101C811.22 91.9401 813.7 93.0201 816.87 94.2301C822.56 96.2801 827.04 98.3801 830.31 100.53C833.58 102.68 835.96 105.15 837.45 107.95C838.94 110.75 839.69 114.25 839.69 118.45C839.69 123.21 838.5 127.18 836.12 130.35C833.74 133.52 830.26 135.93 825.69 137.56C821.12 139.19 815.61 140.01 809.17 140.01Z" fill="#191919"/>
</svg>
